<?xml version="1.0" encoding="UTF-8"?>
<!-- Created with Inkscape (http://www.inkscape.org/) -->
<svg width="26.41mm" height="26.41mm" version="1.1" viewBox="0 0 26.41 26.41" xmlns="http://www.w3.org/2000/svg" xmlns:cc="http://creativecommons.org/ns#" xmlns:dc="http://purl.org/dc/elements/1.1/" xmlns:rdf="http://www.w3.org/1999/02/22-rdf-syntax-ns#">
 <metadata>
  <rdf:RDF>
   <cc:Work rdf:about="">
    <dc:format>image/svg+xml</dc:format>
    <dc:type rdf:resource="http://purl.org/dc/dcmitype/StillImage"/>
    <dc:title/>
   </cc:Work>
  </rdf:RDF>
 </metadata>
 <g transform="translate(-120.48 -174.17)">
  <rect transform="rotate(90)" x="174.17" y="-146.89" width="26.41" height="26.41" fill="#0a0a0a"/>
  <g transform="matrix(.46964 0 0 .46964 -144.5 28.032)" aria-label="@">
   <path d="m607.52 337.97q0 1.2109-0.19531 2.4414-0.17578 1.2109-0.54688 2.3242-0.35156 1.0938-0.91797 2.0508-0.54687 0.9375-1.2891 1.6406-0.74219 0.70312-1.6992 1.1133-0.9375 0.39062-2.0703 0.39062-0.87891 0-1.6016-0.29297-0.70313-0.29296-1.2109-0.78125-0.50781-0.48828-0.83984-1.1133-0.3125-0.64453-0.42969-1.3281h-0.0781q-0.35156 0.72265-0.8789 1.3672-0.52735 0.64453-1.2305 1.1328-0.68359 0.46875-1.5625 0.74219-0.85938 0.27343-1.8945 0.27343-1.5039 0-2.6758-0.54687-1.1524-0.54688-1.9531-1.5234-0.80078-0.99609-1.2305-2.3828-0.41015-1.3867-0.41015-3.0664 0-1.9726 0.5664-3.6133 0.58594-1.6406 1.6602-2.832 1.0938-1.1914 2.6367-1.8555t3.457-0.66406q0.87891 0 1.7578 0.0781 0.87891 0.0781 1.6797 0.21485 0.80078 0.13672 1.4648 0.3125 0.6836 0.15625 1.1328 0.3125l-0.44922 8.125q-0.0195 0.42968-0.0391 0.70312 0 0.25391 0 0.41016t0 0.23437q0 0.0781 0 0.13672 0 1.0352 0.19532 1.6992 0.21484 0.66406 0.54687 1.0547 0.33203 0.39062 0.74219 0.54687 0.42969 0.13672 0.87891 0.13672 0.89843 0 1.582-0.58594 0.68359-0.60546 1.1328-1.6211 0.46875-1.0156 0.70312-2.3828 0.23438-1.3672 0.23438-2.8906 0-2.7734-0.83984-4.9219-0.83985-2.168-2.3242-3.6524-1.4844-1.4844-3.5352-2.2461-2.0312-0.78125-4.4336-0.78125-3.3008 0-5.8203 1.0938-2.5195 1.0742-4.2383 3.0273-1.6992 1.9336-2.5781 4.6094-0.87891 2.6562-0.87891 5.8203 0 2.9492 0.76172 5.2344 0.78125 2.2852 2.2656 3.8476 1.5039 1.5625 3.7109 2.3633 2.2266 0.80079 5.0977 0.80079 1.1914 0 2.3438-0.13672 1.1719-0.13672 2.2461-0.3711 1.0938-0.23437 2.0703-0.52734 0.97656-0.3125 1.8164-0.64453v2.7539q-1.6797 0.74219-3.7891 1.1719-2.1094 0.42969-4.6484 0.42969-3.4961 0-6.25-0.9961-2.7344-0.99609-4.6484-2.8906-1.8945-1.9141-2.8906-4.6484-0.99609-2.7539-0.99609-6.25 0-3.6719 1.1523-6.8359 1.1523-3.1836 3.2812-5.5078 2.1484-2.3242 5.1758-3.6523 3.0469-1.3281 6.8164-1.3281 3.0469 0 5.6055 0.9961 2.5586 0.97656 4.4141 2.832 1.875 1.8359 2.9102 4.4922 1.0352 2.6367 1.0352 5.957zm-19.59 2.5195q0 2.5976 0.97656 3.7695 0.99609 1.1523 2.6562 1.1523 1.0742 0 1.8359-0.42969 0.76172-0.44921 1.25-1.25 0.48828-0.82031 0.74218-1.9336 0.25391-1.1328 0.33204-2.4805l0.27343-4.9414q-0.54687-0.15625-1.3086-0.27344-0.74219-0.13672-1.5625-0.13672-1.4453 0-2.4414 0.56641-0.97656 0.5664-1.6016 1.4844-0.60547 0.91797-0.87891 2.0898-0.27343 1.1719-0.27343 2.3828z" fill="#fff"/>
  </g>
 </g>
</svg>
