<?xml version="1.0" encoding="UTF-8"?>
<!-- Created with Inkscape (http://www.inkscape.org/) -->
<svg width="26.41mm" height="26.41mm" version="1.1" viewBox="0 0 26.41 26.41" xmlns="http://www.w3.org/2000/svg" xmlns:cc="http://creativecommons.org/ns#" xmlns:dc="http://purl.org/dc/elements/1.1/" xmlns:rdf="http://www.w3.org/1999/02/22-rdf-syntax-ns#">
 <metadata>
  <rdf:RDF>
   <cc:Work rdf:about="">
    <dc:format>image/svg+xml</dc:format>
    <dc:type rdf:resource="http://purl.org/dc/dcmitype/StillImage"/>
    <dc:title/>
   </cc:Work>
  </rdf:RDF>
 </metadata>
 <g transform="translate(-104.72 -165.87)">
  <rect transform="rotate(90)" x="165.87" y="-131.13" width="26.41" height="26.41" fill="#0a0a0a"/>
  <path d="m125.16 179.07c0 1.4532 0 2.4333-0.0339 2.974-0.0676 1.318-0.43935 2.3319-1.1828 3.0416-0.74351 0.70971-1.7236 1.1153-3.0416 1.1828-0.54074 0.0339-1.5546 0.0339-2.974 0.0339-1.4532 0-2.4333 0-2.974-0.0339-1.318-0.0676-2.3319-0.43934-3.0416-1.1828-0.7097-0.70971-1.1152-1.7236-1.1828-3.0416-0.0339-0.54072-0.0339-1.5546-0.0339-2.974s0-2.4333 0.0339-2.974c0.0676-1.318 0.43934-2.3319 1.1828-3.0416 0.70972-0.70971 1.7236-1.1153 3.0416-1.1829 0.54073-0.0339 1.5546-0.0339 2.974-0.0339 1.4532 0 2.4333 0 2.974 0.0339 1.318 0.0676 2.3319 0.43935 3.0416 1.1829 0.7097 0.74351 1.1152 1.7236 1.1828 3.0416 0 0.54073 0.0339 1.5208 0.0339 2.974zm-6.5226-5.948h-0.70971-0.7097-0.98008c-0.23657 0-0.54074 0-0.91249 0.0339-0.37175 0-0.7097 0.0339-0.98007 0.10141-0.27037 0.0337-0.50693 0.10142-0.67592 0.16898-0.30416 0.13518-0.57453 0.30416-0.84488 0.54073-0.23657 0.23657-0.40555 0.50694-0.54074 0.8449-0.0676 0.16897-0.13518 0.40554-0.16898 0.67591-0.0339 0.27036-0.0676 0.57453-0.10142 0.98008 0 0.37175-0.0339 0.6759-0.0339 0.91248v0.98007 0.70972 0.7097 0.98008c0 0.23656 0 0.54073 0.0339 0.91248 0 0.37175 0.0339 0.70972 0.10142 0.98008 0.0676 0.27037 0.10142 0.50694 0.16898 0.67591 0.13519 0.30416 0.30417 0.57453 0.54074 0.8449 0.23656 0.23657 0.50693 0.40555 0.84488 0.54073 0.16899 0.0676 0.40555 0.13517 0.67592 0.16897s0.57452 0.0676 0.98007 0.10142c0.40555 0.0339 0.67592 0.0339 0.91249 0.0339h0.98008 0.7097 0.70971 0.98008c0.23657 0 0.54072 0 0.91249-0.0339 0.37175 0 0.7097-0.0339 0.98007-0.10142 0.27036-0.0339 0.50693-0.10142 0.67591-0.16897 0.30416-0.13518 0.57453-0.30416 0.84489-0.54073 0.23657-0.23657 0.40555-0.50694 0.54074-0.8449 0.0676-0.16897 0.13518-0.40554 0.16898-0.67591 0.0339-0.27036 0.0676-0.57453 0.10142-0.98008 0-0.37175 0.0339-0.67592 0.0339-0.91248v-0.98008-0.7097-0.70972-0.98007c0-0.23658 0-0.54073-0.0339-0.91248 0-0.37175-0.0339-0.70972-0.10142-0.98008-0.0339-0.27037-0.10142-0.50694-0.16898-0.67591-0.13519-0.30417-0.30417-0.57453-0.54074-0.8449-0.23657-0.23657-0.50693-0.40555-0.84489-0.54073-0.16898-0.0676-0.40555-0.13519-0.67591-0.16898-0.27037-0.0339-0.57452-0.0676-0.98007-0.10141-0.37177 0-0.67592-0.0339-0.91249-0.0339h-0.98008zm1.8926 3.312c0.7097 0.70971 1.0814 1.5884 1.0814 2.6361s-0.37175 1.8926-1.0814 2.6361c-0.70972 0.70971-1.5884 1.0815-2.6361 1.0815-1.0477 0-1.8926-0.37176-2.6361-1.0815-0.70972-0.70971-1.0815-1.5884-1.0815-2.6361s0.37175-1.8926 1.0815-2.6361c0.7097-0.70971 1.5884-1.0815 2.6361-1.0815 1.0477 0 1.9264 0.33796 2.6361 1.0815zm-0.91249 4.3259c0.47314-0.47315 0.70971-1.0477 0.70971-1.6898s-0.23657-1.2504-0.70971-1.7236c-0.47315-0.47313-1.0477-0.7097-1.7236-0.7097s-1.2504 0.23657-1.7236 0.7097c-0.47315 0.47314-0.70971 1.0477-0.70971 1.7236s0.23656 1.2504 0.70971 1.6898c0.47314 0.47313 1.0477 0.7097 1.7236 0.7097s1.2504-0.23657 1.7236-0.7097zm2.7712-6.1846c0.16899 0.16897 0.27037 0.37175 0.27037 0.60832s-0.10142 0.43935-0.27037 0.60832c-0.16898 0.16898-0.37175 0.27037-0.60832 0.27037-0.23656 0-0.43934-0.10142-0.60832-0.27037-0.16898-0.16897-0.27036-0.37175-0.27036-0.60832s0.10142-0.43935 0.27036-0.60832c0.16898-0.16898 0.37176-0.27037 0.60832-0.27037 0.23657 0 0.43934 0.10142 0.60832 0.27037z" fill="#fff" stroke-width=".33796"/>
 </g>
</svg>
