<svg class="svg-logo-stefan" width="60.103mm" height="8.4663mm" version="1.1" viewBox="0 0 60.103 8.4663" xmlns="http://www.w3.org/2000/svg">
 <title>Link to the Homepage</title>
 <g transform="translate(-209.59 -130.99)">
  <g fill="#111" class="svg-logo-stefan-letters">
   <path d="m212.01 131.68q0.62441 0 0.96308 0.13759 0.33867 0.127 0.58208 0.27516 0.127 0.0741 0.20109 0.11642 0.0847 0.0317 0.15875 0.0317 0.16933 0 0.23283-0.46567h0.24342q-0.0106 0.20109-0.0318 0.48684-0.0106 0.27516-0.0212 0.73025 0 0.45508 0 1.1959h-0.24342q-0.0423-0.55033-0.254-1.0689-0.21166-0.51859-0.60325-0.84667-0.381-0.33867-0.94191-0.33867-0.508 0-0.83609 0.28575-0.32808 0.28575-0.32808 0.79375 0 0.42334 0.21167 0.73025 0.21166 0.29634 0.61383 0.58209 0.41275 0.28575 0.99483 0.68791 0.508 0.32809 0.91017 0.65617t0.64558 0.74083q0.24342 0.41275 0.24342 0.98425 0 0.6985-0.37042 1.1536-0.35983 0.45508-0.9525 0.68791-0.59266 0.22225-1.3018 0.22225-0.65616 0-1.0478-0.127-0.39158-0.127-0.65616-0.26458-0.23284-0.14817-0.35984-0.14817-0.16933 0-0.23283 0.46567h-0.24342q0.0212-0.254 0.0212-0.59267 0.0106-0.33866 0.0106-0.87841 0.0106-0.55034 0.0106-1.3864h0.24341q0.0423 0.6985 0.23284 1.3123 0.20108 0.60325 0.60325 0.97367 0.41275 0.37042 1.0901 0.37042 0.55033 0 0.93133-0.29634 0.381-0.29633 0.381-0.889 0-0.65616-0.4445-1.0795-0.4445-0.43391-1.143-0.889-0.49741-0.32808-0.93133-0.65616-0.43392-0.32809-0.6985-0.75142-0.254-0.42333-0.254-1.0054 0-0.66675 0.32808-1.0901 0.33867-0.43392 0.87842-0.635 0.55033-0.21167 1.1642-0.21167z"/>
   <path d="m217.59 132.1v1.7357h1.2488v0.21167h-1.2488v4.2757q0 0.3175 0.11641 0.45508 0.11642 0.127 0.34925 0.127 0.1905 0 0.381-0.13758 0.1905-0.14817 0.33867-0.49742l0.17992 0.0953q-0.16934 0.47625-0.51859 0.78317-0.33866 0.30691-0.93133 0.30691-0.34925 0-0.61383-0.0953-0.26459-0.0847-0.4445-0.26458-0.23284-0.23283-0.30692-0.5715-0.0741-0.34925-0.0741-0.89958v-3.5772h-0.889v-0.21167h0.889v-1.397q0.4445 0 0.81491-0.0741 0.381-0.0847 0.70909-0.26458z"/>
   <path d="m221.85 133.69q0.93133 0 1.4605 0.55033 0.52916 0.55033 0.52916 1.7992h-3.4819l-0.0212-0.20109h2.1696q0.0106-0.51858-0.0635-0.9525-0.0741-0.4445-0.23283-0.70908-0.15875-0.26458-0.42334-0.26458-0.37041 0-0.635 0.46566-0.254 0.46567-0.30691 1.5452l0.0318 0.0635q-0.0106 0.127-0.0212 0.26458 0 0.13759 0 0.28575 0 0.73025 0.20108 1.1853 0.21167 0.45508 0.52917 0.66675 0.3175 0.20108 0.64558 0.20108 0.3175 0 0.68792-0.15875 0.381-0.15875 0.70908-0.68792l0.1905 0.0635q-0.127 0.40217-0.40217 0.78317-0.27516 0.381-0.6985 0.62442-0.42333 0.24341-1.016 0.24341-0.71966 0-1.27-0.30691-0.55033-0.30692-0.86783-0.93134-0.30692-0.62441-0.30692-1.5875 0-0.98425 0.32809-1.6404 0.33866-0.65617 0.92075-0.97367 0.59266-0.32808 1.3441-0.32808z"/>
   <path d="m227.25 131.03q0.37042 0 0.64559 0.0953 0.27516 0.0952 0.48683 0.254 0.14817 0.11642 0.254 0.32808 0.10583 0.20109 0.10583 0.46567 0 0.28575-0.21166 0.508-0.20109 0.22225-0.53975 0.22225-0.34925 0-0.58209-0.20108-0.22225-0.20109-0.22225-0.55034 0-0.27516 0.15875-0.48683t0.46567-0.29633q-0.0317-0.0635-0.127-0.10584-0.0953-0.0423-0.254-0.0423-0.21167 0-0.34925 0.0741t-0.22225 0.20109q-0.11642 0.15875-0.15875 0.46566-0.0423 0.29634-0.0423 0.92075v0.96309h1.1324v0.21166h-1.1324v4.1592q0 0.51859 0.26458 0.6985 0.26459 0.16934 0.73025 0.16934v0.22225q-0.27516-0.0106-0.77258-0.0212-0.49742-0.0212-1.0478-0.0212-0.40217 0-0.79375 0.0212-0.381 0.0106-0.58208 0.0212v-0.22225q0.37041 0 0.51858-0.15875 0.15875-0.15875 0.15875-0.60325v-4.2651h-0.71967v-0.21166h0.71967q0-0.94192 0.14816-1.4288 0.14817-0.49742 0.51859-0.85725 0.23283-0.22225 0.61383-0.37042 0.39158-0.15875 0.83608-0.15875z"/>
   <path d="m229.58 139.39q-0.70908 0-1.0266-0.37042-0.3175-0.37041-0.3175-0.89958 0-0.45508 0.20108-0.74083 0.21167-0.28575 0.53975-0.46567 0.32808-0.1905 0.68792-0.30692 0.37041-0.127 0.6985-0.24341 0.33866-0.127 0.53975-0.28575 0.21166-0.15875 0.21166-0.40217v-0.8255q0-0.27517-0.0953-0.48683-0.0847-0.22225-0.27516-0.33867-0.17992-0.11642-0.47625-0.11642-0.21167 0-0.42334 0.0635-0.21166 0.0529-0.34925 0.1905 0.29634 0.10584 0.45509 0.32809 0.16933 0.21166 0.16933 0.48683 0 0.35983-0.254 0.5715-0.24342 0.21167-0.58208 0.21167-0.381 0-0.58209-0.23284-0.1905-0.24341-0.1905-0.58208 0-0.30692 0.14817-0.508 0.15875-0.20108 0.43392-0.381 0.29633-0.16933 0.70908-0.26458 0.42333-0.0952 0.91017-0.0952 0.48683 0 0.87841 0.10583 0.39159 0.0952 0.65617 0.35983 0.24342 0.24342 0.3175 0.60325 0.0741 0.34925 0.0741 0.889v2.8787q0 0.254 0.0529 0.35983 0.0529 0.10584 0.17992 0.10584 0.10583 0 0.20108-0.0529 0.0952-0.0529 0.17992-0.127l0.10583 0.17992q-0.22225 0.1905-0.51858 0.29633-0.28575 0.0952-0.64559 0.0952-0.635 0-0.84666-0.254-0.20109-0.26458-0.21167-0.60325-0.26458 0.43392-0.65617 0.64558-0.381 0.21167-0.89958 0.21167zm0.81492-0.67733q0.20108 0 0.37041-0.0952 0.17992-0.0952 0.34925-0.33867v-2.1696q-0.127 0.21166-0.35983 0.35983-0.22225 0.13758-0.46567 0.30692-0.23283 0.15875-0.39158 0.41275t-0.15875 0.67733q0 0.45508 0.1905 0.65617 0.1905 0.1905 0.46567 0.1905z"/>
   <path d="m237.6 133.69q0.4445 0 0.71967 0.11641 0.28575 0.10584 0.4445 0.29634 0.16933 0.20108 0.24341 0.51858 0.0847 0.3175 0.0847 0.85725v2.8469q0 0.4445 0.14817 0.60325 0.15875 0.15875 0.52917 0.15875v0.22225q-0.20109-0.0106-0.60325-0.0212-0.40217-0.0212-0.79375-0.0212-0.40217 0-0.79375 0.0212-0.381 0.0106-0.58209 0.0212v-0.22225q0.3175 0 0.4445-0.15875t0.127-0.60325v-3.2914q0-0.26458-0.0529-0.45508-0.0529-0.20109-0.1905-0.30692-0.13758-0.11642-0.41275-0.11642-0.4445 0-0.75141 0.34925-0.29634 0.34925-0.29634 0.87842v2.9422q0 0.4445 0.127 0.60325 0.13759 0.15875 0.4445 0.15875v0.22225q-0.1905-0.0106-0.56091-0.0212-0.35984-0.0212-0.75142-0.0212-0.40217 0-0.8255 0.0212-0.42333 0.0106-0.635 0.0212v-0.22225q0.37042 0 0.51858-0.15875 0.15875-0.15875 0.15875-0.60325v-3.3338q0-0.47625-0.14816-0.6985-0.13759-0.23284-0.52917-0.23284v-0.22225q0.33867 0.0317 0.65617 0.0317 0.4445 0 0.8255-0.0317 0.39158-0.0423 0.71966-0.11641v0.9525q0.26459-0.53975 0.71967-0.762t1.016-0.22225z"/>
   <path d="m246 131.82q2.0849 0 3.1009 0.9525 1.016 0.94191 1.016 2.7093 0 1.1536-0.49742 2.0214-0.49742 0.85725-1.4499 1.3335-0.94191 0.47625-2.2648 0.47625-0.254 0-0.73025-0.0106-0.46567-0.0212-0.81492-0.0212-0.46566 0-0.92075 0.0106-0.4445 0-0.70908 0.0212v-0.21167q0.33867-0.0212 0.508-0.0847t0.22225-0.254q0.0635-0.1905 0.0635-0.5715v-5.2493q0-0.39158-0.0635-0.5715-0.0529-0.1905-0.23283-0.254-0.16934-0.0741-0.49742-0.0847v-0.21166q0.26458 0.0106 0.70908 0.0317 0.45509 0.0106 0.89959 0 0.381-0.0106 0.85725-0.0212 0.48683-0.0106 0.80433-0.0106zm-0.0106 0.1905q-0.48684 0-0.635 0.17991-0.14817 0.17992-0.14817 0.73025v5.2917q0 0.55033 0.14817 0.73025 0.15875 0.17992 0.64558 0.17992 0.889 0 1.397-0.41275 0.51858-0.42334 0.74083-1.2277t0.22225-1.9579q0-1.778-0.55033-2.6458t-1.8203-0.86783z"/>
   <path d="m253.57 133.69q0.93134 0 1.4605 0.55033 0.52917 0.55033 0.52917 1.7992h-3.4819l-0.0212-0.20109h2.1696q0.0106-0.51858-0.0635-0.9525-0.0741-0.4445-0.23284-0.70908-0.15875-0.26458-0.42333-0.26458-0.37042 0-0.635 0.46566-0.254 0.46567-0.30692 1.5452l0.0317 0.0635q-0.0106 0.127-0.0212 0.26458 0 0.13759 0 0.28575 0 0.73025 0.20109 1.1853 0.21166 0.45508 0.52916 0.66675 0.3175 0.20108 0.64559 0.20108 0.3175 0 0.68791-0.15875 0.381-0.15875 0.70909-0.68792l0.1905 0.0635q-0.127 0.40217-0.40217 0.78317t-0.6985 0.62442q-0.42333 0.24341-1.016 0.24341-0.71967 0-1.27-0.30691-0.55033-0.30692-0.86783-0.93134-0.30692-0.62441-0.30692-1.5875 0-0.98425 0.32808-1.6404 0.33867-0.65617 0.92075-0.97367 0.59267-0.32808 1.3441-0.32808z"/>
   <path d="m261.18 133.84v0.21167q-0.20108 0.0529-0.381 0.254-0.17991 0.1905-0.34925 0.65617l-1.5452 4.3709q-0.16934-0.0106-0.34925-0.0106-0.16934 0-0.33867 0.0106l-1.8838-4.6778q-0.16934-0.41275-0.33867-0.49742-0.15875-0.0952-0.27517-0.0952v-0.22225q0.33867 0.0212 0.6985 0.0423 0.37042 0.0106 0.80434 0.0106 0.32808 0 0.68791-0.0106 0.37042-0.0212 0.68792-0.0423v0.22225q-0.22225 0-0.40217 0.0212-0.16933 0.0212-0.23283 0.13758-0.0635 0.11642 0.0212 0.41275l1.2382 3.2808-0.10583 0.14816 0.83608-2.3178q0.29633-0.85725 0.0952-1.2488-0.20108-0.40217-0.6985-0.4445v-0.21167q0.24342 0.0106 0.51858 0.0212 0.28575 0.0106 0.49742 0.0106t0.4445-0.0106 0.37042-0.0212z"/>
   <path d="m262.72 139.39q-0.70908 0-1.0266-0.37042-0.3175-0.37041-0.3175-0.89958 0-0.45508 0.20108-0.74083 0.21167-0.28575 0.53975-0.46567 0.32808-0.1905 0.68792-0.30692 0.37041-0.127 0.6985-0.24341 0.33866-0.127 0.53975-0.28575 0.21166-0.15875 0.21166-0.40217v-0.8255q0-0.27517-0.0953-0.48683-0.0847-0.22225-0.27516-0.33867-0.17992-0.11642-0.47625-0.11642-0.21167 0-0.42334 0.0635-0.21166 0.0529-0.34925 0.1905 0.29634 0.10584 0.45509 0.32809 0.16933 0.21166 0.16933 0.48683 0 0.35983-0.254 0.5715-0.24342 0.21167-0.58208 0.21167-0.381 0-0.58209-0.23284-0.1905-0.24341-0.1905-0.58208 0-0.30692 0.14817-0.508 0.15875-0.20108 0.43392-0.381 0.29633-0.16933 0.70908-0.26458 0.42333-0.0952 0.91017-0.0952 0.48683 0 0.87841 0.10583 0.39159 0.0952 0.65617 0.35983 0.24342 0.24342 0.3175 0.60325 0.0741 0.34925 0.0741 0.889v2.8787q0 0.254 0.0529 0.35983 0.0529 0.10584 0.17992 0.10584 0.10583 0 0.20108-0.0529 0.0952-0.0529 0.17992-0.127l0.10583 0.17992q-0.22225 0.1905-0.51858 0.29633-0.28575 0.0952-0.64559 0.0952-0.635 0-0.84666-0.254-0.20109-0.26458-0.21167-0.60325-0.26458 0.43392-0.65617 0.64558-0.381 0.21167-0.89958 0.21167zm0.81492-0.67733q0.20108 0 0.37041-0.0952 0.17992-0.0952 0.34925-0.33867v-2.1696q-0.127 0.21166-0.35983 0.35983-0.22225 0.13758-0.46567 0.30692-0.23283 0.15875-0.39158 0.41275t-0.15875 0.67733q0 0.45508 0.1905 0.65617 0.1905 0.1905 0.46567 0.1905z"/>
   <path d="m269.01 133.72v4.6038c0 0.29633 0.0494 0.49741 0.14817 0.60325 0.10583 0.10583 0.28222 0.15875 0.52917 0.15875v0.22225c-0.127-7e-3 -0.32456-0.0141-0.59267-0.0212-0.26811-0.0141-0.53975-0.0212-0.81492-0.0212-0.27516 0-0.55386 7e-3 -0.83608 0.0212-0.28222 7e-3 -0.49389 0.0141-0.635 0.0212v-0.22225c0.24694 0 0.41981-0.0529 0.51858-0.15875 0.10584-0.10584 0.15875-0.30692 0.15875-0.60325v-3.3338c0-0.3175-0.0494-0.55034-0.14816-0.6985-0.0917-0.15523-0.26811-0.23284-0.52917-0.23284v-0.22225c0.22578 0.0212 0.4445 0.0317 0.65617 0.0317 0.29633 0 0.5715-0.0106 0.8255-0.0317 0.26105-0.0282 0.50094-0.067 0.71966-0.11641z"/>
  </g>
  <g class="svg-logo-stefan-diamond">
    <rect transform="rotate(45)" x="282.24" y="-96.984" width="1.5828" height="1.5828" fill="#e32110"/>
    <!--<rect class="svg-logo-stefan-diamond" x="282.24" y="-96.984" width="1.5828" height="1.5828" fill="#e32110"/>-->
  </g>
 </g>
</svg>
