<svg xmlns="http://www.w3.org/2000/svg" viewBox="0 0 128.7 19"><g data-name="Layer 2"><g data-name="Layer 1"><path fill="#121212" d="M3 7.1a1.4 1.4 0 0 0 .5 1 3.7 3.7 0 0 0 1.1.8l1.6.5 1.7.7a7.3 7.3 0 0 1 1.5.8 3.8 3.8 0 0 1 1.2 1.3 4 4 0 0 1 .4 2 4.2 4.2 0 0 1-.8 2.7 5.2 5.2 0 0 1-2.3 1.6 9.1 9.1 0 0 1-3.1.5 13.2 13.2 0 0 1-2.4-.2A14 14 0 0 1 0 18l.1-4H2l.5 2.6-.3-.5a7.2 7.2 0 0 0 1.4.5 6.5 6.5 0 0 0 1.5.1 4.8 4.8 0 0 0 1.5-.2 2.2 2.2 0 0 0 1-.7 1.7 1.7 0 0 0 .5-1.1 1.5 1.5 0 0 0-.4-1.1 3.2 3.2 0 0 0-1.2-.8 16.4 16.4 0 0 0-1.5-.5l-1.7-.6a7.2 7.2 0 0 1-1.6-.8A3.8 3.8 0 0 1 .4 9.5a4.1 4.1 0 0 1-.4-2A4.2 4.2 0 0 1 .8 5a4.6 4.6 0 0 1 2-1.5A8 8 0 0 1 5.7 3a12.4 12.4 0 0 1 2.3.2 13.8 13.8 0 0 1 2.5.8l-.2 3.8H8.4l-.5-2.4.4.4A6 6 0 0 0 7 5.4a6.8 6.8 0 0 0-1-.1 4.7 4.7 0 0 0-1.4.2 2.2 2.2 0 0 0-1 .6A1.5 1.5 0 0 0 3 7ZM16.8 19a2.8 2.8 0 0 1-2.3-1 4 4 0 0 1-.8-2.7V8.6l.4.4H12V7.3l2.1-.5-.4.6v-3l3.1-.6v3.6l-.3-.5h3.3v2h-3.3l.3-.3v6.3a2.4 2.4 0 0 0 .3 1.4 1 1 0 0 0 1 .4 3 3 0 0 0 .7-.1 9.4 9.4 0 0 0 1-.4l.5 1.7a7.4 7.4 0 0 1-3.5 1.1Zm9.4 0a5.6 5.6 0 0 1-2.8-.7 4.6 4.6 0 0 1-1.9-2 7 7 0 0 1-.7-3.3 7.5 7.5 0 0 1 .7-3.4 5 5 0 0 1 2-2.2 6 6 0 0 1 3.1-.8 5.2 5.2 0 0 1 2.8.7 4 4 0 0 1 1.6 2 6.6 6.6 0 0 1 .5 2.6v.7l-.1.8h-8v-1.8h5.4l-.4.3a5.6 5.6 0 0 0-.1-1.6 2 2 0 0 0-.7-1 1.9 1.9 0 0 0-1.2-.4 2 2 0 0 0-1.4.5 2.8 2.8 0 0 0-.8 1.3 7.5 7.5 0 0 0-.2 1.9 7.6 7.6 0 0 0 .3 2 2.8 2.8 0 0 0 1 1.5 2.7 2.7 0 0 0 1.6.6 5.4 5.4 0 0 0 1.6-.3 8.7 8.7 0 0 0 1.8-.8l1 1.6a10.6 10.6 0 0 1-2.5 1.3 8.5 8.5 0 0 1-2.6.5Zm6.8-.3V17l1.7-.5-.3.3v-8l.3.3h-1.9V7.5l2-.5-.4.5V6a4.5 4.5 0 0 1 1.2-3.5A4.9 4.9 0 0 1 39 1.4a6.8 6.8 0 0 1 1.3.1 12.9 12.9 0 0 1 1.4.3l-.5 2a6.3 6.3 0 0 0-.8-.2 5 5 0 0 0-.9 0A2.2 2.2 0 0 0 38 4a2.1 2.1 0 0 0-.5 1.7v1.7L37 7h3.1v2.1h-3l.3-.3v8.1l-.3-.3 2 .5v1.6Zm18-1.6-.5-.6 1.9.6v1.6l-3.9.1-.4-2h.2a6.2 6.2 0 0 1-1.9 1.6 4.7 4.7 0 0 1-2.1.5 3.2 3.2 0 0 1-2.4-.8 3.5 3.5 0 0 1-.9-2.6 3.3 3.3 0 0 1 .5-2 3 3 0 0 1 1.6-1.1 8.3 8.3 0 0 1 2.5-.3H48l-.2.2V11a2 2 0 0 0-.5-1.5 2.1 2.1 0 0 0-1.4-.5 7.3 7.3 0 0 0-1 .1 5.7 5.7 0 0 0-1.2.3L44 9l-.3 1.9H42l-.2-3.3 2.7-.6a12.9 12.9 0 0 1 2.3-.2 4.8 4.8 0 0 1 3.1.9 3.3 3.3 0 0 1 1.1 2.7Zm-6.9-2a1.6 1.6 0 0 0 .4 1.2 1.3 1.3 0 0 0 1 .4 2.6 2.6 0 0 0 1.2-.3 5.9 5.9 0 0 0 1.3-1l-.1.6v-2.5l.2.2h-2a2.6 2.6 0 0 0-1.5.4 1.4 1.4 0 0 0-.5 1Zm9.2 3.6V17l1.8-.5-.3.4V8.6l.3.5-1.8-.5V7l3.9-.2.4 2.1-.4-.1a7.2 7.2 0 0 1 2.2-1.6 5.8 5.8 0 0 1 2.3-.5 3.5 3.5 0 0 1 2.5.9 3.7 3.7 0 0 1 1 2.8V17l-.3-.4 1.7.5v1.6h-5.9V17l1.7-.5-.4.5v-6a2.3 2.3 0 0 0-.4-1.6 1.6 1.6 0 0 0-1.3-.5 3 3 0 0 0-1.3.3 5.1 5.1 0 0 0-1.4 1l.2-.4V17l-.3-.5 1.6.5v1.6ZM78.5 3.2a8.9 8.9 0 0 1 3 .5 5.7 5.7 0 0 1 2 1.3A6.2 6.2 0 0 1 85 7.3a9.8 9.8 0 0 1 .5 3.3 9.3 9.3 0 0 1-1 4.4 6.3 6.3 0 0 1-2.6 2.7 8.2 8.2 0 0 1-4 .9h-6.4V17l2-.6-.5.6V4.8l.5.7-2-.6V3.3l5-.1Zm-.3 13.2a5 5 0 0 0 1.4-.2 2.9 2.9 0 0 0 1.3-.8 4 4 0 0 0 1-1.6 10 10 0 0 0 .3-3 9.8 9.8 0 0 0-.4-2.7 4 4 0 0 0-.8-1.7 2.8 2.8 0 0 0-1.2-.7 4.4 4.4 0 0 0-1.3-.2h-2.6l.4-.5v12l-.4-.6ZM92.4 19a5.6 5.6 0 0 1-2.8-.7 4.6 4.6 0 0 1-1.9-2A7 7 0 0 1 87 13a7.5 7.5 0 0 1 .8-3.4 5 5 0 0 1 2-2.2 6 6 0 0 1 3-.8 5.2 5.2 0 0 1 2.8.7 4 4 0 0 1 1.6 1.9 6.6 6.6 0 0 1 .5 2.6v1.6h-8v-1.8H95l-.4.3a5.6 5.6 0 0 0-.1-1.6 2 2 0 0 0-.7-1 1.9 1.9 0 0 0-1.2-.4 2 2 0 0 0-1.3.5 2.8 2.8 0 0 0-.8 1.3 7.5 7.5 0 0 0-.2 1.9 7.6 7.6 0 0 0 .3 2 2.8 2.8 0 0 0 .9 1.5 2.7 2.7 0 0 0 1.7.6 5.4 5.4 0 0 0 1.6-.3 8.7 8.7 0 0 0 1.8-.8l1 1.6a10.6 10.6 0 0 1-2.6 1.3 8.5 8.5 0 0 1-2.6.5Zm12.8-12 5-.2v1.6l-1.3.6.4-.5-3.6 10.3h-3.6L98.9 8.6l.4.4-1.3-.4V7l5.4-.2v1.6l-1.6.5.2-.4 2.3 8.3h-.3l2.5-8.1.2.2-1.5-.3Zm15.1 10.1-.5-.6 2 .6v1.6l-4 .1-.3-2h.2a6.4 6.4 0 0 1-2 1.6 4.7 4.7 0 0 1-2 .5 3.2 3.2 0 0 1-2.4-.8 3.4 3.4 0 0 1-1-2.6 3.3 3.3 0 0 1 .6-2 3 3 0 0 1 1.6-1.1 8.3 8.3 0 0 1 2.5-.3h2.4l-.2.2V11a2 2 0 0 0-.5-1.5 2.1 2.1 0 0 0-1.5-.5 7.2 7.2 0 0 0-1 .1 6 6 0 0 0-1.1.3l.3-.4-.3 1.9h-1.9l-.2-3.3 2.7-.6a12.9 12.9 0 0 1 2.3-.2 4.8 4.8 0 0 1 3.1.9 3.3 3.3 0 0 1 1.1 2.7Zm-6.8-2a1.6 1.6 0 0 0 .4 1.2 1.3 1.3 0 0 0 1 .4 2.5 2.5 0 0 0 1.2-.3 6 6 0 0 0 1.3-1l-.2.5v-2.5l.2.3h-1.9a2.6 2.6 0 0 0-1.6.3 1.3 1.3 0 0 0-.4 1.2Zm13.7-8.3-4.6.2v1.6l1.5.4v7.7l-1.5.4v1.6h6.1v-1.6l-1.5-.4V6.8z"/><path fill="#e22626" d="m125.2 0 2.6 2.6-2.6 2.7-2.6-2.7z"/></g></g></svg>