<svg xmlns="http://www.w3.org/2000/svg" viewBox="0 0 128.66 18.98"><defs><style>.cls-1{fill:#121212;}.cls-2{fill:#e22626;}</style></defs><title>Asset 1</title><g id="Layer_2" data-name="Layer 2"><g id="Layer_1-2" data-name="Layer 1"><path class="cls-1" d="M3.06,7.1A1.37,1.37,0,0,0,3.5,8.15a3.72,3.72,0,0,0,1.14.72q.71.3,1.56.57c.58.18,1.14.39,1.7.62a7.28,7.28,0,0,1,1.55.85,3.79,3.79,0,0,1,1.14,1.31,4.09,4.09,0,0,1,.43,2,4.2,4.2,0,0,1-.84,2.69,5.15,5.15,0,0,1-2.26,1.57A9.12,9.12,0,0,1,4.8,19a13.15,13.15,0,0,1-2.39-.23A14.06,14.06,0,0,1,0,18.05l.11-4.18H1.94l.46,2.66L2.11,16a7.2,7.2,0,0,0,1.4.47A6.55,6.55,0,0,0,5,16.64a4.81,4.81,0,0,0,1.5-.22,2.23,2.23,0,0,0,1.07-.68,1.67,1.67,0,0,0,.4-1.14,1.54,1.54,0,0,0-.42-1.12,3.17,3.17,0,0,0-1.13-.74,16.38,16.38,0,0,0-1.55-.55c-.56-.17-1.12-.36-1.68-.58a7.16,7.16,0,0,1-1.57-.84A3.8,3.8,0,0,1,.44,9.48a4.11,4.11,0,0,1-.42-2A4.16,4.16,0,0,1,.77,5a4.56,4.56,0,0,1,2-1.51,8,8,0,0,1,2.89-.5,12.37,12.37,0,0,1,2.37.24,13.83,13.83,0,0,1,2.47.73l-.25,3.85H8.4l-.46-2.4.35.35a5.91,5.91,0,0,0-1.17-.34,6.75,6.75,0,0,0-1.27-.12,4.65,4.65,0,0,0-1.38.19,2.22,2.22,0,0,0-1,.59A1.52,1.52,0,0,0,3.06,7.1Z"/><path class="cls-1" d="M16.76,19A2.83,2.83,0,0,1,14.47,18a4,4,0,0,1-.79-2.72V8.59l.4.4H12V7.34l2.15-.51-.44.53v-3l3.11-.55V7.36l-.33-.42H19.8l0,2.05h-3.3l.33-.4v6.32a2.38,2.38,0,0,0,.3,1.36,1.09,1.09,0,0,0,.93.42,3,3,0,0,0,.78-.12,9.4,9.4,0,0,0,.93-.32l.58,1.69A7.37,7.37,0,0,1,16.76,19Z"/><path class="cls-1" d="M26.2,19a5.61,5.61,0,0,1-2.8-.67,4.59,4.59,0,0,1-1.88-2A6.94,6.94,0,0,1,20.83,13a7.49,7.49,0,0,1,.72-3.41,5.09,5.09,0,0,1,2-2.19,5.94,5.94,0,0,1,3.06-.76,5.17,5.17,0,0,1,2.79.68A4.06,4.06,0,0,1,31,9.22a6.59,6.59,0,0,1,.5,2.65c0,.25,0,.49,0,.74s0,.51-.1.8h-8V11.58h5.41l-.39.29a5.64,5.64,0,0,0-.16-1.55,2,2,0,0,0-.61-1.05,1.88,1.88,0,0,0-1.21-.37A1.92,1.92,0,0,0,25,9.4a2.75,2.75,0,0,0-.75,1.33A7.48,7.48,0,0,0,24,12.57a7.56,7.56,0,0,0,.28,2.12,2.82,2.82,0,0,0,.93,1.45,2.69,2.69,0,0,0,1.72.53,5.44,5.44,0,0,0,1.58-.28,8.7,8.7,0,0,0,1.81-.82l1.05,1.65a10.64,10.64,0,0,1-2.61,1.31A8.48,8.48,0,0,1,26.2,19Z"/><path class="cls-1" d="M32.91,18.69V17.11l1.76-.51-.28.33V8.77l.28.33H32.85V7.45L34.74,7l-.35.47V6a4.47,4.47,0,0,1,1.25-3.49A4.87,4.87,0,0,1,39,1.4a6.85,6.85,0,0,1,1.26.11,12.87,12.87,0,0,1,1.4.31l-.44,2a6.34,6.34,0,0,0-.86-.21,4.92,4.92,0,0,0-.84-.07,2.2,2.2,0,0,0-1.48.49,2.1,2.1,0,0,0-.58,1.68V7.43l-.4-.38h3.15L40.15,9.1h-3l.31-.33v8.16l-.29-.33,2,.51v1.58Z"/><path class="cls-1" d="M50.91,17.13l-.42-.64,1.89.62v1.58l-3.85.15-.42-2.09.22.07a6.21,6.21,0,0,1-1.92,1.6,4.72,4.72,0,0,1-2.12.53,3.23,3.23,0,0,1-2.34-.9A3.47,3.47,0,0,1,41,15.46a3.34,3.34,0,0,1,.54-2,3,3,0,0,1,1.57-1.06,8.35,8.35,0,0,1,2.51-.33H48l-.2.24V10.86a1.91,1.91,0,0,0-.5-1.48,2.12,2.12,0,0,0-1.44-.44,7.31,7.31,0,0,0-1,.08,5.65,5.65,0,0,0-1.13.28l.31-.36-.29,1.83H41.87l-.18-3.26c1-.26,1.91-.46,2.74-.61a12.87,12.87,0,0,1,2.28-.22,4.81,4.81,0,0,1,3.12.88,3.3,3.3,0,0,1,1.08,2.73Zm-6.78-2a1.64,1.64,0,0,0,.39,1.19,1.27,1.27,0,0,0,.95.39,2.58,2.58,0,0,0,1.25-.35A5.89,5.89,0,0,0,48,15.46l-.15.52v-2.5l.22.22H46.16a2.6,2.6,0,0,0-1.59.36A1.36,1.36,0,0,0,44.13,15.17Z"/><path class="cls-1" d="M53.28,18.69V17.11l1.85-.53-.37.44V8.64l.37.5-1.85-.55V7l3.88-.18.39,2.11-.39-.15a7.2,7.2,0,0,1,2.24-1.6,5.75,5.75,0,0,1,2.27-.51,3.49,3.49,0,0,1,2.48.93,3.69,3.69,0,0,1,1,2.83V17l-.29-.44,1.76.53v1.58H60.72V17.11l1.67-.49-.35.46v-6a2.26,2.26,0,0,0-.47-1.58A1.63,1.63,0,0,0,60.32,9,3.08,3.08,0,0,0,59,9.34a5.11,5.11,0,0,0-1.39,1l.2-.46v7.21l-.29-.46,1.61.49v1.58Z"/><path class="cls-1" d="M78.5,3.2a8.88,8.88,0,0,1,2.91.46,5.74,5.74,0,0,1,2.23,1.41,6.22,6.22,0,0,1,1.42,2.35,9.75,9.75,0,0,1,.5,3.26,9.3,9.3,0,0,1-.94,4.4A6.31,6.31,0,0,1,82,17.78a8.24,8.24,0,0,1-4,.91H71.57V17.11l2-.6-.42.64V4.83l.47.64L71.57,4.9V3.31l5-.11Zm-.31,13.22a4.92,4.92,0,0,0,1.41-.21,2.89,2.89,0,0,0,1.28-.78,4,4,0,0,0,.94-1.67,9.92,9.92,0,0,0,.35-2.9,9.78,9.78,0,0,0-.33-2.81A4,4,0,0,0,81,6.42a2.82,2.82,0,0,0-1.22-.75,4.43,4.43,0,0,0-1.33-.2H75.86L76.34,5V16.91l-.48-.49Z"/><path class="cls-1" d="M92.42,19a5.61,5.61,0,0,1-2.8-.67,4.59,4.59,0,0,1-1.88-2A6.94,6.94,0,0,1,87.05,13a7.49,7.49,0,0,1,.72-3.41,5.09,5.09,0,0,1,2-2.19,5.94,5.94,0,0,1,3.06-.76,5.17,5.17,0,0,1,2.79.68,4.06,4.06,0,0,1,1.59,1.86,6.59,6.59,0,0,1,.5,2.65c0,.25,0,.49,0,.74s0,.51-.1.8h-8V11.58H95l-.39.29a5.64,5.64,0,0,0-.16-1.55,2,2,0,0,0-.61-1.05,1.88,1.88,0,0,0-1.21-.37,1.92,1.92,0,0,0-1.37.5,2.75,2.75,0,0,0-.75,1.33,7.48,7.48,0,0,0-.22,1.84,7.56,7.56,0,0,0,.28,2.12,2.82,2.82,0,0,0,.93,1.45,2.69,2.69,0,0,0,1.72.53,5.44,5.44,0,0,0,1.58-.28,8.7,8.7,0,0,0,1.81-.82l1,1.65A10.64,10.64,0,0,1,95,18.53,8.48,8.48,0,0,1,92.42,19Z"/><path class="cls-1" d="M105.2,7l5-.18V8.42L108.92,9l.42-.47-3.63,10.23H102.1L98.91,8.61l.44.36L98,8.61V7l5.39-.18V8.42l-1.6.48.22-.4,2.24,8.28H104l2.48-8.1.18.24-1.5-.31Z"/><path class="cls-1" d="M120.25,17.13l-.42-.64,1.9.62v1.58l-3.85.15-.42-2.09.22.07a6.36,6.36,0,0,1-1.93,1.6,4.65,4.65,0,0,1-2.12.53,3.19,3.19,0,0,1-2.33-.9,3.43,3.43,0,0,1-.93-2.59,3.34,3.34,0,0,1,.54-2,3,3,0,0,1,1.58-1.06,8.28,8.28,0,0,1,2.5-.33h2.38l-.2.24V10.86a1.91,1.91,0,0,0-.49-1.48,2.12,2.12,0,0,0-1.44-.44,7.19,7.19,0,0,0-1,.08,5.91,5.91,0,0,0-1.14.28l.31-.36-.29,1.83h-1.91L111,7.51c1-.26,1.91-.46,2.74-.61a12.87,12.87,0,0,1,2.28-.22,4.79,4.79,0,0,1,3.12.88,3.3,3.3,0,0,1,1.08,2.73Zm-6.77-2a1.64,1.64,0,0,0,.38,1.19,1.3,1.3,0,0,0,1,.39,2.55,2.55,0,0,0,1.24-.35,5.94,5.94,0,0,0,1.27-.94l-.16.52v-2.5l.22.22H115.5a2.56,2.56,0,0,0-1.58.36A1.33,1.33,0,0,0,113.48,15.17Z"/><polygon class="cls-1" points="127.18 6.85 122.63 7.01 122.63 8.59 124.1 9 124.1 16.68 122.63 17.11 122.63 18.69 128.66 18.69 128.66 17.11 127.18 16.68 127.18 6.85"/><rect class="cls-2" x="123.39" y="0.76" width="3.68" height="3.68" transform="translate(38.52 -87.79) rotate(45)"/></g></g></svg>